<svg width="26" height="26" viewBox="0 0 26 26" fill="none" xmlns="http://www.w3.org/2000/svg">
<path d="M13 4.33332C10.6068 4.33332 8.66667 6.27342 8.66667 8.66666C8.66667 11.0599 10.6068 13 13 13C15.3932 13 17.3333 11.0599 17.3333 8.66666C17.3333 6.27342 15.3932 4.33332 13 4.33332ZM6.5 8.66666C6.5 5.07681 9.41015 2.16666 13 2.16666C16.5899 2.16666 19.5 5.07681 19.5 8.66666C19.5 12.2565 16.5899 15.1667 13 15.1667C9.41015 15.1667 6.5 12.2565 6.5 8.66666ZM8.66667 19.5C6.87174 19.5 5.41667 20.9551 5.41667 22.75C5.41667 23.3483 4.93164 23.8333 4.33333 23.8333C3.73502 23.8333 3.25 23.3483 3.25 22.75C3.25 19.7584 5.67513 17.3333 8.66667 17.3333H17.3333C20.3249 17.3333 22.75 19.7585 22.75 22.75C22.75 23.3483 22.265 23.8333 21.6667 23.8333C21.0684 23.8333 20.5833 23.3483 20.5833 22.75C20.5833 20.9551 19.1283 19.5 17.3333 19.5H8.66667Z" fill="#0D0D0D"/>
</svg>
